<?xml version="1.0" standalone="no"?>
<!DOCTYPE svg PUBLIC "-//W3C//DTD SVG 20010904//EN"
 "http://www.w3.org/TR/2001/REC-SVG-20010904/DTD/svg10.dtd">
<svg version="1.0" xmlns="http://www.w3.org/2000/svg"
 width="221.000000pt" height="221.000000pt" viewBox="0 0 221.000000 221.000000"
 preserveAspectRatio="xMidYMid meet">
<metadata>
Created by potrace 1.14, written by Peter Selinger 2001-2017
</metadata>
<g transform="translate(0.000000,221.000000) scale(0.100000,-0.100000)"
fill="#000000" stroke="none">
<path d="M1070 1919 c-139 -10 -290 -73 -290 -120 0 -33 19 -59 44 -59 13 0
52 13 87 30 202 93 452 40 730 -155 161 -114 220 -228 213 -410 -12 -299 -222
-625 -489 -757 -99 -50 -170 -68 -280 -73 -188 -8 -379 64 -510 194 -87 86
-142 203 -164 346 -15 95 -7 320 13 395 48 179 148 291 284 321 63 13 83 41
63 85 -11 25 -15 26 -64 21 -66 -7 -136 -37 -197 -85 -138 -109 -209 -280
-215 -522 -8 -288 55 -486 200 -634 141 -145 347 -229 560 -228 55 0 111 3
125 6 14 3 39 8 55 12 97 19 238 89 336 166 325 255 483 745 335 1037 -52 102
-191 222 -367 316 -115 61 -214 94 -327 111 -20 3 -41 6 -47 7 -5 2 -48 0 -95
-4z"/>
<path d="M1375 1371 c-56 -23 -75 -99 -38 -149 24 -33 89 -58 126 -48 79 19
80 166 1 196 -30 12 -61 12 -89 1z"/>
<path d="M745 1296 c-56 -24 -73 -108 -32 -159 33 -42 93 -48 135 -12 57 47
52 139 -9 170 -34 18 -55 18 -94 1z"/>
<path d="M1378 973 c-8 -10 -24 -34 -36 -54 -25 -41 -83 -96 -132 -124 -25
-14 -53 -20 -100 -20 -82 1 -123 21 -219 110 -39 36 -77 65 -84 65 -24 0 -57
-31 -57 -54 0 -24 49 -79 124 -141 152 -124 334 -119 477 13 59 55 119 141
119 173 0 21 -32 49 -57 49 -11 0 -27 -8 -35 -17z"/>
</g>
</svg>
